<svg width="57" height="44" viewBox="0 0 57 44" fill="none" xmlns="http://www.w3.org/2000/svg">
<path d="M28.5932 25.625C28.6089 25.6359 28.6277 25.6434 28.6403 25.6577C28.7081 25.7372 29.1107 27.1816 29.1871 27.4274C30.8491 32.7372 32.4654 38.0611 34.0358 43.3987C32.2565 43.4191 30.477 43.4266 28.6975 43.4212L23.2852 43.4041L28.5932 25.625Z" fill="#FED141"/>
<path d="M28.5958 0.0527344C28.8242 0.175735 34.1768 9.27567 34.803 10.3095L46.8917 30.3987C47.8459 31.9863 48.781 33.5882 49.7564 35.1626C50.222 35.8992 50.6775 36.6423 51.1227 37.3914C51.3655 37.7968 51.6382 38.2048 51.8179 38.6422C51.9873 38.0988 52.3538 37.5987 52.6088 37.089C53.7989 37.192 55.0268 37.1316 56.2224 37.1276L53.9369 41.3317C53.563 42.0258 53.1648 42.712 52.8437 43.4327C48.2758 43.4163 43.7011 43.4906 39.1346 43.4156C38.8462 42.2521 38.4371 41.107 38.0843 39.9615C37.4203 37.7561 36.7421 35.5549 36.0498 33.3581L30.3514 14.6781C29.8598 13.0869 29.4003 11.484 28.8937 9.89831C28.8354 9.71609 28.7863 9.36844 28.6912 9.21567C28.6755 9.19099 28.6469 9.17787 28.6247 9.15895C28.4761 9.75434 28.2726 10.3406 28.0922 10.9271L27.249 13.6851L25.0657 20.7244C23.4666 25.8111 21.9039 30.9091 20.3779 36.0182L18.9705 40.7975C18.7172 41.6371 18.3585 42.5852 18.1888 43.4354C13.6432 43.3601 9.09449 43.4548 4.54863 43.402C4.26618 42.7669 3.84605 42.1713 3.49961 41.5672C2.64492 40.0764 1.77355 38.5996 0.945312 37.0931C2.13376 37.1166 3.33553 37.1405 4.52354 37.0911C4.84551 37.5909 5.16304 38.0935 5.47607 38.5989C7.23462 35.7581 8.91909 32.8757 10.6461 30.0162L20.6685 13.331C22.6246 9.98645 24.6092 6.65872 26.6223 3.34817C27.2844 2.25211 27.9126 1.13604 28.5958 0.0527344Z" fill="#57947D"/>
</svg>
