<svg width="71" height="44" viewBox="0 0 71 44" fill="none" xmlns="http://www.w3.org/2000/svg">
<path d="M36.6154 0.0603985C36.6957 0.0523023 36.7787 0.051854 36.8593 0.0535077C37.6775 0.0703202 38.0024 0.565773 38.5058 1.09364C38.7493 1.15177 39.242 1.17864 39.3695 1.42707C39.396 1.4783 39.4053 1.53105 39.3901 1.58613C39.3226 1.83298 39.0074 1.96669 38.7993 2.07687C38.7969 2.32551 38.7679 2.55337 38.6894 2.79033C38.5137 3.32196 38.1657 3.64098 37.6782 3.88211C37.5835 3.91904 37.4881 3.95639 37.3888 3.97934C36.8907 4.09465 36.3818 3.94578 35.9632 3.6714C35.4351 3.32513 35.0413 2.77572 34.9272 2.14977C34.8435 1.69063 34.9159 1.19331 35.198 0.812758C35.5381 0.35348 36.07 0.147631 36.6154 0.0603985Z" fill="#86762C"/>
<path fill-rule="evenodd" clip-rule="evenodd" d="M32.9509 12.6016C32.3196 12.3163 31.7771 11.9693 31.5162 11.2926C31.0719 10.1404 31.9677 8.13912 32.4605 7.05389L32.5043 6.9572C33.0049 5.85272 33.6468 4.43629 34.857 4.00641C35.2732 3.85858 35.7142 3.89024 36.1093 4.08699C36.6013 4.33208 36.9933 4.80084 37.1604 5.32154C37.2774 5.68631 37.2991 6.08092 37.3205 6.46802L37.3205 6.46817C37.3272 6.58962 37.3338 6.71034 37.3434 6.82916C37.4392 8.01186 37.6373 9.75822 38.7959 10.3762C39.1175 10.5478 39.4469 10.6494 39.7618 10.7465C40.4812 10.9684 41.1244 11.1669 41.4242 12.1218C41.5641 12.5689 41.5858 13.0446 41.4873 13.5026L41.5131 13.5108L41.5289 13.516C42.4643 13.8275 42.9697 14.7484 43.5077 15.7286C44.1795 16.9526 44.9022 18.2692 46.5761 18.6077C47.2132 18.7365 47.8522 18.6635 48.4376 18.3786C49.1525 18.0308 49.6758 17.4616 49.9335 16.7089C50.2021 15.9246 50.316 15.0797 50.4291 14.2408L50.4292 14.2408C50.6705 12.4504 50.9083 10.6871 52.6386 9.59775C52.5749 9.15001 52.5983 8.3499 52.8881 7.98164C52.9342 7.92294 52.9973 7.86998 53.0731 7.85596C53.195 7.83333 53.317 7.91016 53.4017 7.98964C53.7046 8.27383 53.9027 8.75354 54.0253 9.14264C54.7123 9.19566 55.287 9.28034 55.904 9.60936C55.9908 9.65565 56.077 9.70682 56.1636 9.75821C56.3198 9.85088 56.4773 9.94428 56.6413 10.0111C57.0314 10.1704 57.5499 10.1888 58.0727 10.2074C58.8261 10.2343 59.5885 10.2614 59.9889 10.7105C60.4306 11.2053 60.523 12.1492 60.4751 12.7839C60.4561 13.0361 60.3882 13.3455 60.1833 13.5144C59.9271 13.7258 59.5578 13.7349 59.1993 13.7437C58.9995 13.7486 58.803 13.7535 58.6312 13.7932C58.1192 13.9116 55.6707 14.7367 55.3707 15.0094C55.2446 15.1239 55.176 15.3247 55.1299 15.4836C55.0086 15.9028 54.9359 16.3484 54.8639 16.7893C54.8299 16.9974 54.7961 17.2046 54.7574 17.4074C54.6059 18.1823 54.3905 18.9433 54.1135 19.6827C53.7401 20.689 53.1954 21.6956 52.5122 22.5251C51.3453 23.9416 49.8005 25.0124 47.9697 25.3417C47.6045 25.4074 47.2399 25.4338 46.8753 25.4603C46.5957 25.4805 46.3161 25.5008 46.0363 25.5388C44.4039 25.7606 43.5223 26.8941 42.9156 28.3352C42.343 29.6947 42.0064 31.2368 41.828 32.6968C41.7242 33.5463 41.6659 34.3977 41.6075 35.251L41.603 35.3169C41.5942 35.4444 41.5875 35.5732 41.5808 35.7025L41.5808 35.7027C41.5659 35.9922 41.5508 36.2839 41.511 36.5668C43.893 35.8885 46.2706 35.2435 48.6849 34.6902C50.441 34.2875 52.2218 33.9123 54.016 33.729C57.6466 33.3587 61.3949 33.6525 64.9514 34.4487C66.8597 34.8763 68.8141 35.4075 70.6277 36.1472L70.6942 36.1489V39.4143L70.6349 39.3933C70.625 39.2946 70.6057 39.196 70.5866 39.0981L70.5866 39.0978C70.5799 39.0638 70.5733 39.0299 70.5671 38.996C70.3183 38.8247 70.0225 38.7033 69.7378 38.5864C69.6755 38.5609 69.6138 38.5355 69.5531 38.5099C68.2001 37.9397 66.8069 37.4699 65.3848 37.1043C62.4454 36.3377 59.3054 35.9295 56.2644 36.0428C51.7756 36.2102 47.3806 37.3809 43.0848 38.614L38 40.0916L37.8845 40.1257L37.8842 40.1258C35.4127 40.8565 32.9423 41.5869 30.4242 42.1453C28.5192 42.5619 26.5952 42.886 24.659 43.1165C23.2685 43.2839 21.8748 43.4207 20.4736 43.4445C14.8677 43.5395 9.51859 42.3789 4.27098 40.4709C2.92748 39.9676 1.59385 39.4383 0.270829 38.8834L0.136719 38.8455V36.1183L0.181328 36.1186C0.584331 36.4163 1.27815 36.6862 1.86596 36.9149C2.05224 36.9874 2.22788 37.0557 2.38024 37.1194C5.6875 38.503 9.06379 39.6554 12.5949 40.3186C13.5589 40.4995 14.5462 40.6666 15.5245 40.7448C15.7982 39.4143 15.9824 37.9993 16.0932 36.6454C16.1121 36.4152 16.1035 36.1724 16.0948 35.928C16.0803 35.5185 16.0656 35.1043 16.1796 34.7364C16.3027 34.3392 16.6005 34.046 16.8932 33.7577C16.99 33.6625 17.0862 33.5677 17.1753 33.4699C17.3821 33.2394 17.5652 32.9885 17.7218 32.7213C18.9074 30.6769 19.5418 28.9137 19.1298 26.5182C19.0839 26.2516 19.035 25.987 18.9862 25.7231L18.9862 25.723C18.8392 24.9283 18.6935 24.1401 18.6361 23.3239C18.5621 23.5865 18.546 23.8706 18.5302 24.147C18.5267 24.2093 18.5232 24.2711 18.519 24.3323C18.4715 25.1133 18.443 25.8953 18.4335 26.6778C18.4312 26.8016 18.4313 26.9269 18.4313 27.0529V27.0529C18.4314 27.4272 18.4315 27.8071 18.3701 28.1706C18.3415 28.3394 18.2815 28.6053 18.1266 28.7087C18.026 28.7759 17.8661 28.7917 17.7501 28.768C17.6209 28.5395 17.7247 24.4653 17.7763 23.9623C17.8486 23.2584 17.9696 22.5465 18.1567 21.8637C18.2893 21.3797 18.4583 20.9073 18.7002 20.4665C19.4708 19.0619 20.9059 17.6902 22.2988 16.9084C22.95 16.5435 23.653 16.2799 24.3835 16.1267L24.4388 14.9533C24.441 14.9031 24.443 14.8532 24.445 14.8036C24.4739 14.0848 24.5002 13.4305 25.0839 12.8944C25.3343 12.6643 25.6402 12.4926 25.9754 12.4264C26.5193 12.319 27.2711 12.3635 27.9433 12.4034H27.9433C28.1822 12.4176 28.4109 12.4311 28.6168 12.4371C28.9734 12.4473 29.3303 12.4527 29.6872 12.458L29.6873 12.458C30.2725 12.4667 30.8577 12.4754 31.442 12.506C31.6489 12.5168 31.856 12.5326 32.0632 12.5483L32.0633 12.5483C32.3592 12.5708 32.6553 12.5933 32.9509 12.6016ZM27.8791 24.9407C28.6955 25.4082 29.6603 25.7393 30.5568 26.0169C33.0509 26.7897 35.3383 27.126 37.9501 26.8025C38.1195 26.9662 38.28 27.1388 38.4311 27.3196C40.0134 29.2481 39.8497 31.9974 39.709 34.3613L39.6985 34.5369C39.6847 34.7718 39.6727 35.0071 39.6606 35.2425C39.6289 35.8594 39.5972 36.4769 39.5346 37.0901C37.7868 37.6954 35.9691 38.1854 34.1827 38.6635C32.6049 39.1007 30.9904 39.5145 29.3869 39.8456C28.8829 39.9496 28.3759 40.0392 27.869 40.1288L27.8689 40.1288C27.3132 40.227 26.7577 40.3252 26.2067 40.4423C26.1003 40.1722 25.9645 39.9062 25.8302 39.6431C25.7771 39.539 25.7242 39.4355 25.6735 39.3323L24.7328 37.4236C24.6753 37.308 24.6158 37.1936 24.5566 37.0797L24.5565 37.0796C24.2902 36.5675 24.0276 36.0624 23.9578 35.4743C23.8475 34.5441 24.0955 33.6105 24.3346 32.7101C24.3683 32.5833 24.4018 32.4573 24.4341 32.332C24.5123 32.0283 24.5597 31.7178 24.6071 31.4075L24.6071 31.4075C24.6611 31.0543 24.715 30.7013 24.8143 30.3586C25.3074 28.6573 26.7828 26.3322 27.8791 24.9407ZM21.8266 31.7733C21.8111 31.6174 21.7904 31.4097 21.6943 31.3522C20.8029 32.2907 18.7203 34.7137 18.2273 35.8006C17.8366 36.6622 17.6502 37.6449 17.4718 38.5857C17.4436 38.7339 17.4157 38.8812 17.3872 39.0267C17.3515 39.2093 17.3146 39.3918 17.2777 39.5745C17.1886 40.0154 17.0994 40.4567 17.026 40.8998C18.0933 40.9549 19.1622 40.9757 20.2309 40.9622C21.1837 40.9379 22.1355 40.8854 23.0851 40.8048C23.2784 40.7883 23.472 40.7667 23.6656 40.7452C23.941 40.7145 24.2166 40.6838 24.4917 40.6676C24.2544 40.2093 24.0366 39.7396 23.8188 39.2698C23.5324 38.6522 23.2459 38.0345 22.9152 37.4423C22.769 37.1805 22.5623 36.9458 22.3552 36.7107C22.01 36.3189 21.6639 35.9259 21.5958 35.4048C21.5479 35.0391 21.6561 34.6686 21.7628 34.3032C21.8202 34.1065 21.8772 33.9112 21.9092 33.719C22.0131 33.0944 21.9348 32.5015 21.8391 31.8821C21.8344 31.8519 21.8307 31.8144 21.8266 31.7733Z" fill="#A97B40"/>
</svg>
