<svg width="58" height="44" viewBox="0 0 58 44" fill="none" xmlns="http://www.w3.org/2000/svg">
<path fill-rule="evenodd" clip-rule="evenodd" d="M25.0227 0.0649767C23.2083 0.357285 21.5368 1.20874 20.3105 2.63115C19.4378 3.6435 18.7549 4.9819 18.5914 6.31917C18.5559 6.60895 18.537 6.9035 18.5276 6.9032C18.5079 6.90255 18.5308 5.58471 18.5308 0.120528L18.4806 0.122852C17.8476 0.152142 17.2171 0.181312 16.5877 0.260804C11.8369 0.860954 6.94778 2.94046 3.68379 6.51635L3.66986 6.53161C3.35674 6.87455 2.24993 8.08674 2.3026 8.47699C2.31667 8.58124 2.33919 8.6034 2.41006 8.67313C2.94973 8.76071 3.91131 8.74118 4.70448 8.72506C4.98352 8.71939 5.24171 8.71415 5.45335 8.71414L11.171 8.73466L32.2683 8.7363L47.4474 8.73694L52.9187 8.73666C53.2188 8.73665 53.5197 8.73385 53.8209 8.73104C54.4556 8.72513 55.0915 8.71921 55.7231 8.73937C55.1463 7.87559 54.4807 7.15013 53.7506 6.41605C50.6929 3.34151 46.8007 1.44667 42.5693 0.605238C41.4537 0.38337 40.2775 0.205614 39.1402 0.173369C39.1447 5.75578 39.1675 7.07323 39.1503 7.07375C39.1425 7.07399 39.1266 6.80606 39.0971 6.54086C38.9218 4.96498 38.066 3.4744 36.9665 2.35972C35.6905 1.0662 34.1208 0.317003 32.395 0.0583717C30.7732 0.052061 29.1514 0.0510487 27.5297 0.0553347L25.0227 0.0649767Z" fill="#746D6D"/>
<path fill-rule="evenodd" clip-rule="evenodd" d="M54.1844 11.513C53.2872 11.5204 52.3898 11.521 51.4926 11.5149C51.4917 11.7652 51.4915 12.0157 51.4913 12.2662C51.4906 13.143 51.4899 14.0207 51.4605 14.8963C50.7825 14.8872 50.1034 14.8935 49.4246 14.8999C49.1642 14.9023 48.9038 14.9047 48.6436 14.9062L48.6408 11.5213L45.4063 11.5241L45.3952 14.9067L42.5078 14.9073L42.5088 11.5227L39.3763 11.5204C39.3727 11.9026 39.3719 12.2852 39.3712 12.6677C39.3698 13.4219 39.3683 14.1764 39.3449 14.9297C38.8849 14.9211 38.4249 14.925 37.9648 14.929C37.458 14.9334 36.9513 14.9378 36.4446 14.9253L36.4172 11.5219L33.265 11.5223C33.246 12.3643 33.2487 13.2076 33.2514 14.0505C33.2523 14.3465 33.2533 14.6425 33.2533 14.9383L30.4435 14.9292C30.4599 13.7961 30.466 12.6628 30.462 11.5296C29.354 11.5202 28.2459 11.5182 27.1379 11.5235C27.1173 12.2064 27.1209 12.8902 27.1244 13.574C27.1268 14.0284 27.1292 14.4827 27.1245 14.9367C26.1789 14.9015 25.2193 14.9086 24.2733 14.9335C24.2735 14.5972 24.2745 14.2607 24.2756 13.9242C24.278 13.1236 24.2805 12.3227 24.2713 11.5224L21.1317 11.522C21.1091 12.6606 21.0986 13.7993 21.1002 14.938L18.2717 14.9426C18.2717 14.609 18.2765 14.2727 18.2812 13.9354C18.2925 13.1302 18.3038 12.3194 18.2525 11.5252L15.0976 11.5235C15.0616 12.3333 15.0698 13.1501 15.078 13.9644C15.0812 14.2865 15.0845 14.6083 15.085 14.929C14.6754 14.935 14.2639 14.9285 13.8523 14.922C13.2866 14.9131 12.7208 14.9042 12.1596 14.9275C12.1594 14.5687 12.1608 14.2096 12.1622 13.8504C12.1653 13.0744 12.1684 12.2979 12.155 11.5228L8.87391 11.5215C8.85335 12.6489 8.84477 13.7764 8.84819 14.904C7.90548 14.8985 6.96275 14.9116 6.02056 14.9433C6.02042 14.7091 6.02079 14.4748 6.02116 14.2405C6.02259 13.3363 6.02401 12.4312 5.99623 11.528L3.33335 11.5205C3.20009 11.5202 3.06551 11.5181 2.93041 11.516C2.58056 11.5105 2.22719 11.5049 1.88386 11.5312C1.37948 11.615 0.959368 11.8426 0.648925 12.2596C0.376534 12.6256 0.253824 13.1137 0.324193 13.5637C0.394099 14.0108 0.679317 14.4222 1.04866 14.6771C1.25456 14.8204 1.48902 14.9175 1.73596 14.9617C2.05178 15.0211 2.38931 15.0164 2.71719 15.0119C2.80326 15.0107 2.88867 15.0095 2.97285 15.0095L4.7593 15.0056L4.7516 31.8663C4.75193 32.7531 4.75602 33.6403 4.76012 34.5276C4.76858 36.3615 4.77705 38.1958 4.75224 40.0284L1.43161 40.0259C1.39606 40.4811 1.39895 40.9402 1.40182 41.3979C1.40258 41.5192 1.40334 41.6404 1.40339 41.7615C1.40345 41.911 1.40247 42.0608 1.40149 42.2109C1.3988 42.623 1.3961 43.0363 1.41482 43.4464L42.5381 43.4247L52.5087 43.4435C52.8773 43.4434 53.2463 43.4451 53.6153 43.4467C54.4406 43.4503 55.2666 43.454 56.0906 43.4382C56.0813 42.9511 56.0808 42.4628 56.0802 41.9745C56.0795 41.3258 56.0788 40.6769 56.0575 40.0306C54.9621 40.024 53.8667 40.0254 52.7713 40.0345L52.7696 19.6994C52.7677 19.2249 52.7618 18.7492 52.7558 18.2731C52.7421 17.175 52.7284 16.0744 52.7649 14.9806C52.9332 14.9802 53.1605 14.9837 53.4181 14.9878C54.2917 15.0017 55.5142 15.021 55.9666 14.9056C56.2485 14.8337 56.5057 14.693 56.7102 14.485C57.0412 14.148 57.2147 13.6518 57.1955 13.1826C57.1766 12.7232 56.9746 12.2603 56.6322 11.9503C56.4288 11.7636 56.1792 11.6345 55.9093 11.5763C55.4912 11.4823 55.026 11.4943 54.5808 11.5057C54.4462 11.5092 54.3135 11.5126 54.1844 11.513ZM20.4788 18.3775C20.5848 18.3725 20.691 18.3693 20.7971 18.3679C23.2633 18.3359 25.7329 18.3576 28.2017 18.3794H28.2017H28.2018C29.5258 18.391 30.8496 18.4027 32.1724 18.406L35.5505 18.3982C35.7072 18.3974 35.8684 18.3929 36.0314 18.3884C36.4847 18.3757 36.9526 18.3627 37.3819 18.4285C37.8028 18.4894 38.1932 18.6834 38.496 18.9822C38.795 19.2775 38.9524 19.6417 39.0084 20.0535C39.0686 20.4947 39.0535 20.9804 39.0388 21.4508L39.0388 21.4509C39.0327 21.6457 39.0267 21.8379 39.0262 22.0232L39.0198 26.049L39.0237 40.0522C38.3544 40.0325 37.6848 40.0246 37.0152 40.0287C36.916 40.0285 36.8161 40.0274 36.7158 40.0263L36.7155 40.0263C36.321 40.0219 35.9201 40.0174 35.533 40.0669V23.4744C35.5331 22.9343 35.5362 22.3943 35.5423 21.8543L21.9182 21.8571L21.9206 40.0241L18.5349 40.0298C18.498 35.4209 18.4894 30.8119 18.5091 26.2029L18.5027 22.2416C18.5023 22.0476 18.4979 21.8499 18.4935 21.6506C18.4817 21.1123 18.4697 20.5625 18.5338 20.0432C18.5818 19.6548 18.7383 19.3338 18.9929 19.037C19.3922 18.5717 19.8909 18.4235 20.4788 18.3775ZM46.1667 25.1027L44.838 25.112C44.1867 25.1447 43.5814 25.3168 43.1232 25.8092C42.8025 26.1538 42.6219 26.5771 42.5527 27.0399C42.4958 27.4202 42.502 27.8209 42.5081 28.2135V28.2138V28.214C42.51 28.3399 42.5119 28.4648 42.5118 28.588L42.5103 31.1031L42.5043 40.0338L46.9495 40.0263L49.2127 40.0298L49.213 30.8587L49.2155 28.4262C49.2156 28.3072 49.2187 28.1849 49.2218 28.0612V28.061V28.0608C49.2305 27.7132 49.2395 27.3543 49.1838 27.0249C49.103 26.545 48.8461 26.1153 48.5029 25.7757C47.832 25.1112 47.0546 25.0995 46.1667 25.1027ZM12.0093 25.1575H12.0093H12.0093C11.4757 25.1525 10.9325 25.1475 10.4047 25.1818C9.75182 25.2601 9.18716 25.4925 8.76754 26.0173C8.50609 26.3444 8.36902 26.6853 8.31629 27.099C8.2598 27.5418 8.27305 28.0048 8.28606 28.4594L8.28607 28.4596C8.29013 28.6016 8.29417 28.7428 8.29605 28.8823C8.30453 29.6692 8.30772 30.4562 8.30564 31.2431C8.31335 34.1717 8.30623 37.1003 8.2843 40.0287L12.8877 40.0263L14.9462 40.0273C14.9694 38.275 14.964 36.5233 14.9586 34.7716V34.7716C14.9551 33.6408 14.9516 32.5099 14.9558 31.3789L14.9674 28.6632C14.9681 28.535 14.9712 28.4038 14.9743 28.2711C14.9847 27.8328 14.9955 27.3783 14.9194 26.9611C14.85 26.5799 14.6079 26.1862 14.3394 25.9093C13.7739 25.3261 13.0906 25.165 12.3034 25.16C12.2059 25.1594 12.1079 25.1584 12.0096 25.1575L12.0093 25.1575Z" fill="#8F8F8F"/>
</svg>
