<svg width="64" height="44" viewBox="0 0 64 44" fill="none" xmlns="http://www.w3.org/2000/svg">
<path d="M16.0907 14.1676C13.1372 14.1676 5.38298 30.6186 1.68843 38.8469C0.456906 41.5878 -0.109807 41.6478 0.576792 42.6885C1.1762 43.5986 4.02614 43.4133 4.02614 43.4133H27.6375C27.6375 43.4133 29.4848 43.6204 29.9098 43.0482C30.5256 42.2145 30.0025 41.8548 29.2123 39.4681C26.564 31.4851 20.3301 14.1621 16.0907 14.1621V14.1676ZM16.2214 24.7662C15.0335 24.7281 14.8482 20.9954 13.6821 20.7502C12.7122 20.5485 10.4289 25.2076 10.4071 22.968C10.4071 22.968 10.794 22.2705 11.3826 21.2842C12.8211 18.8593 15.4368 14.7016 16.3686 14.9032C17.5946 15.1648 19.8397 19.0609 21.0276 21.2787C21.5072 22.1724 21.905 22.6029 21.5562 22.8536C20.8696 23.3494 19.7961 20.8101 18.9678 20.9681C17.8181 21.1861 17.393 24.8098 16.2214 24.7717V24.7662Z" fill="#5A7269"/>
<path d="M62.9141 39.5716C59.6228 28.8259 50.1466 -0.185552 43.7602 0.0542116C39.8967 0.19589 31.554 17.1483 28.5024 23.6165C28.1373 24.3957 27.8485 25.0169 27.6523 25.4474C29.8048 30.417 31.7393 35.9479 32.9381 39.5662C33.7282 41.9584 34.2568 42.269 33.6356 43.1027C33.4775 43.3152 33.1233 43.4188 32.7419 43.4188H60.7889C60.7889 43.4188 62.6526 43.4841 63.1484 42.8302C63.7697 42.0074 63.6498 42.0129 62.9032 39.5716H62.9141ZM51.1493 11.8353C50.1848 12.6037 48.2939 8.87643 47.1278 9.27967C45.7219 9.77009 45.1279 14.1567 43.6403 14.1076C42.1309 14.0586 41.8475 9.48673 40.4198 9.00721C39.2264 8.60942 37.6353 12.6691 36.6163 11.9334C36.2348 11.6555 36.6272 11.1705 37.1994 10.1842C38.9376 7.22533 42.5777 1.31297 43.8256 1.57997C45.5748 1.95597 49.4001 8.22798 50.8496 10.6965C51.2092 11.3068 51.3673 11.6501 51.1439 11.8299L51.1493 11.8353Z" fill="#759C8D"/>
</svg>
