<svg width="46" height="44" viewBox="0 0 46 44" fill="none" xmlns="http://www.w3.org/2000/svg">
<path d="M42.1702 35.5522C42.4266 35.5495 42.6837 35.5607 42.9401 35.5678C42.9506 36.4665 42.952 37.3653 42.9443 38.264C41.6673 38.3086 40.38 38.2776 39.1015 38.287L28.8007 38.2938L4.43417 38.2861L3.53125 38.2835L3.53759 35.5796L42.1702 35.5522Z" fill="#D3A40E"/>
<path d="M1.58863 39.775C3.12977 39.7174 4.68552 39.7582 6.22826 39.7576L14.7439 39.7549L44.6747 39.7608C44.6762 40.9838 44.7237 42.2274 44.6635 43.4472L1.58857 43.4501C1.57942 42.2265 1.56142 40.998 1.58863 39.775Z" fill="#D3A40E"/>
<path d="M22.6226 0.0759568C22.7196 0.0672484 22.8168 0.0613042 22.9142 0.0581315C23.5679 0.0357909 24.187 0.0774321 24.8109 0.285049C25.6718 0.57155 26.5149 0.986487 27.3534 1.33493C29.1136 2.05109 30.8688 2.77945 32.6189 3.51994C35.1151 4.5438 37.6054 5.58188 40.0898 6.63413L42.9584 7.81711C43.4922 8.03733 44.0364 8.24598 44.5609 8.48768C44.8309 8.61202 45.0788 8.74689 45.2954 8.95276C45.6602 9.299 45.8759 9.73633 45.8818 10.2454C45.8863 10.4927 45.8414 10.7383 45.7498 10.968C45.6582 11.1977 45.5217 11.4068 45.3483 11.5832C45.0559 11.8716 44.6776 12.0572 44.2705 12.1118C43.5787 12.2022 42.8206 12.1372 42.1214 12.1351L38.039 12.1278L23.8889 12.129L8.97108 12.1307L4.60887 12.134C3.86051 12.1363 3.06628 12.1931 2.32426 12.1207C1.98207 12.0874 1.66243 11.9673 1.38723 11.7607C1.17665 11.5998 1.00072 11.398 0.869956 11.1675C0.739192 10.9369 0.656288 10.6824 0.626206 10.419C0.571048 9.94985 0.775388 9.45653 1.0621 9.09188C1.23515 8.87178 1.41836 8.73234 1.67093 8.61007C1.94704 8.47635 2.24015 8.374 2.52308 8.25525L4.43017 7.46061L10.2533 5.02413L16.743 2.32618C17.8466 1.84888 18.9572 1.38818 20.0746 0.944227C20.9119 0.605666 21.7177 0.191171 22.6226 0.0759568Z" fill="#D3A40E"/>
<path d="M3.71367 13.6385C5.2933 13.6174 6.8757 13.6378 8.45559 13.6378L17.7156 13.6379L42.7603 13.6414L42.7567 15.817C42.5903 15.8135 42.423 15.8175 42.2565 15.8181C42.2603 16.178 42.2996 16.5922 42.1786 16.9354C42.0647 17.2587 41.7876 17.5123 41.4851 17.661L41.4842 32.5872L41.5096 32.6028C42.0924 32.972 42.2754 33.4826 42.4238 34.1274L36.4722 34.097C36.4831 33.8807 36.4946 33.6532 36.5572 33.4445C36.674 33.0562 36.9169 32.7758 37.2714 32.5834C37.3018 29.6971 37.2731 26.8058 37.264 23.9193C37.27 21.8686 37.2636 19.818 37.2448 17.7674C37.2362 17.7589 37.2274 17.7506 37.2191 17.7419C36.6097 17.121 36.71 16.6002 36.71 15.7942C35.8226 15.7845 34.9343 15.7931 34.0466 15.795C34.041 16.0841 34.0531 16.3753 34.0357 16.6639C34.007 17.1379 33.7683 17.4291 33.4307 17.7287L33.4389 27.636C33.4444 29.2747 33.4402 30.9134 33.4262 32.5521C33.5177 32.6182 33.6107 32.684 33.6966 32.7575C34.1257 33.1255 34.2387 33.5466 34.2777 34.0876C32.3002 34.0996 30.3227 34.1012 28.3452 34.0923C28.3517 33.8899 28.3891 33.6803 28.4502 33.487C28.5839 33.0638 28.8507 32.7643 29.2391 32.5645C29.1904 30.5565 29.2111 28.5423 29.2122 26.5337L29.2081 17.7369C29.1426 17.6864 29.0824 17.6302 29.0237 17.5718C28.5302 17.08 28.5999 16.4302 28.6008 15.7941L25.9898 15.7997C25.9807 16.1273 26.0052 16.4751 25.9556 16.7985C25.8907 17.2227 25.6496 17.5004 25.3181 17.746C25.324 17.9913 25.3208 18.2374 25.3217 18.4828L25.3208 23.5211C25.34 26.5184 25.3819 29.5245 25.3217 32.5211C25.3922 32.5704 25.4633 32.6206 25.5283 32.6772C25.9857 33.0759 26.0748 33.5106 26.1153 34.0876C24.1554 34.1067 22.1954 34.1074 20.2355 34.0897C20.2713 33.8205 20.298 33.5345 20.3938 33.2793C20.5255 32.9278 20.784 32.6994 21.1189 32.5441C21.0319 31.327 21.1029 29.9102 21.1034 28.6701L21.1 21.0764L21.0959 19.0115C21.0947 18.5855 21.1073 18.1532 21.07 17.7288C20.9655 17.6574 20.8594 17.5756 20.775 17.4812C20.3527 17.0091 20.4459 16.3808 20.4714 15.8002C19.6023 15.8528 18.7059 15.81 17.8338 15.8172C17.8269 16.1269 17.8522 16.4501 17.8156 16.7575C17.764 17.19 17.5525 17.4932 17.222 17.7576L17.2185 27.2001L17.2056 30.6075C17.2038 31.2379 17.2553 31.9235 17.1705 32.5474C17.2879 32.6108 17.4011 32.6852 17.5014 32.7734C17.9131 33.1358 17.9567 33.5989 17.992 34.1097C16.0901 34.1581 14.1728 34.1195 12.2705 34.0956C12.2754 33.8663 12.2859 33.621 12.3458 33.3988C12.4504 33.0104 12.6994 32.7725 13.0352 32.5778C13.005 30.9732 13.0289 29.3621 13.0308 27.757L13.0179 17.755C12.9435 17.6909 12.8703 17.6258 12.8017 17.5555C12.3233 17.0648 12.4169 16.4316 12.4216 15.8028C12.0728 15.8277 11.7108 15.8104 11.3605 15.8109C10.8873 15.8116 10.4094 15.8256 9.93694 15.8008C9.9177 16.19 9.96722 16.6138 9.84232 16.9879C9.73056 17.3226 9.45932 17.6173 9.14195 17.7707L9.14785 32.591C9.27637 32.6418 9.38875 32.707 9.49172 32.8003C9.87957 33.1515 9.93331 33.6248 9.94848 34.1145C8.03918 34.1202 6.12987 34.1137 4.22066 34.095C4.2391 33.8134 4.23901 33.5195 4.34455 33.2536C4.46218 32.9573 4.72029 32.712 5.00824 32.581C5.02081 31.5419 4.99611 30.5007 4.99809 29.4613L4.99381 17.7528C4.85705 17.6554 4.7161 17.543 4.60354 17.4176C4.16671 16.9308 4.24636 16.3606 4.26861 15.7597L3.69868 15.7613C3.68752 15.0549 3.70712 14.3452 3.71367 13.6385Z" fill="#F6D97D"/>
</svg>
